<?xml version="1.0" encoding="UTF-8" standalone="no"?>
<!-- Created with Inkscape (http://www.inkscape.org/) -->

<svg
   xmlns:dc="http://purl.org/dc/elements/1.1/"
   xmlns:cc="http://creativecommons.org/ns#"
   xmlns:rdf="http://www.w3.org/1999/02/22-rdf-syntax-ns#"
   xmlns:svg="http://www.w3.org/2000/svg"
   xmlns="http://www.w3.org/2000/svg"
   xmlns:sodipodi="http://sodipodi.sourceforge.net/DTD/sodipodi-0.dtd"
   xmlns:inkscape="http://www.inkscape.org/namespaces/inkscape"
   width="2560"
   height="1600"
   viewBox="0 0 2560 1600"
   id="svg3353"
   version="1.1"
   inkscape:version="0.91 r13725"
   sodipodi:docname="iShit .svg">
  <defs
     id="defs3355" />
  <sodipodi:namedview
     id="base"
     pagecolor="#ffffff"
     bordercolor="#666666"
     borderopacity="1.0"
     inkscape:pageopacity="0.0"
     inkscape:pageshadow="2"
     inkscape:zoom="0.44444444"
     inkscape:cx="1118.4593"
     inkscape:cy="634.85975"
     inkscape:document-units="px"
     inkscape:current-layer="layer1"
     showgrid="false"
     units="px"
     inkscape:showpageshadow="false"
     borderlayer="false"
     inkscape:snap-bbox="true"
     inkscape:bbox-paths="true"
     inkscape:bbox-nodes="true"
     inkscape:snap-bbox-edge-midpoints="true"
     inkscape:snap-bbox-midpoints="true"
     inkscape:object-paths="true"
     inkscape:snap-intersection-paths="true"
     inkscape:object-nodes="true"
     inkscape:snap-midpoints="true"
     inkscape:snap-object-midpoints="true"
     inkscape:snap-center="true"
     inkscape:snap-text-baseline="true"
     inkscape:snap-page="true" />
  <metadata
     id="metadata3358">
    <rdf:RDF>
      <cc:Work
         rdf:about="">
        <dc:format>image/svg+xml</dc:format>
        <dc:type
           rdf:resource="http://purl.org/dc/dcmitype/StillImage" />
        <dc:title></dc:title>
      </cc:Work>
    </rdf:RDF>
  </metadata>
  <g
     inkscape:label="Layer 1"
     inkscape:groupmode="layer"
     id="layer1"
     transform="translate(0,547.63784)">
    <g
       id="g4592">
      <rect
         y="-547.63782"
         x="0"
         height="1600"
         width="2560"
         id="rect4590"
         style="opacity:1;fill:#ffffff;fill-opacity:1;fill-rule:nonzero;stroke:none;stroke-width:0.75;stroke-linecap:round;stroke-linejoin:miter;stroke-miterlimit:4;stroke-dasharray:none;stroke-dashoffset:0;stroke-opacity:1" />
      <g
         transform="matrix(0.97905991,0,0,0.97905991,26.536322,-520.4098)"
         id="g4575">
        <g
           id="#ffffffff" />
        <g
           id="#000000ff">
          <path
             style="opacity:1;fill:#000000;stroke:#000000;stroke-width:0.09375"
             inkscape:connector-curvature="0"
             d="m 1303.83,18.74 c 5.25,-3.44 10.32,-7.21 15.91,-10.12 -15.02,11.6 -24.81,28.68 -30.67,46.49 -7.83,24.05 -8.53,49.92 -5.01,74.82 6.53,44.32 25.14,85.89 47.69,124.25 8.51,14.62 18.16,28.53 27.42,42.68 13.23,20.98 24.18,43.61 30.48,67.67 6.22,23.51 7.65,48.42 3.02,72.35 -6.31,33.45 -24.22,63.81 -47.4,88.36 -14.16,15.04 -30.25,28.26 -47.69,39.33 -1.93,1.29 -3.81,2.74 -6.08,3.37 12.52,-11.71 21.52,-26.75 28.09,-42.46 10.35,-25.01 13.14,-52.67 10.42,-79.47 -4.09,-38.93 -19.06,-75.91 -38.24,-109.74 -9.76,-17.24 -20.83,-33.7 -32.48,-49.71 -13.27,-18.92 -24.79,-39.21 -32.82,-60.93 -6.99,-19.04 -11.4,-39.24 -11.21,-59.59 -0.32,-25.65 6.87,-51.11 19.24,-73.49 16.56,-29.86 41.44,-54.45 69.33,-73.81 z"
             id="path4547" />
          <path
             style="opacity:1;fill:#000000;stroke:#000000;stroke-width:0.09375"
             inkscape:connector-curvature="0"
             d="m 1002.27,110.32 c 19.1,-24.73 43.61,-44.94 70.35,-60.93 -18.38,14.02 -29.12,35.83 -34.31,57.93 -7.62,32.58 -3.55,66.75 5.6,98.59 13.27,45.13 36.53,86.62 63,125.25 12.99,19.41 24,40.27 31.41,62.47 6.51,19.61 10.1,40.33 9.25,61.02 -0.68,25.58 -8.46,50.7 -21.02,72.91 -19.64,34.21 -49.34,62.05 -83.06,82.17 13.94,-13.51 24.05,-30.64 30.63,-48.83 8.9,-24.49 10.87,-51.11 7.8,-76.87 -5.48,-44.76 -24.82,-86.57 -48.62,-124.41 -12.1,-19.64 -27.02,-37.41 -38.14,-57.67 -17.17,-30.28 -28.92,-64.69 -27.53,-99.87 0.76,-33.4 14.27,-65.6 34.64,-91.76 z"
             id="path4549" />
          <path
             style="opacity:1;fill:#000000;stroke:#000000;stroke-width:0.09375"
             inkscape:connector-curvature="0"
             d="m 1443.16,171.19 c 19.85,-33.66 49.96,-60.25 83.17,-80.3 -15.38,12.13 -25.54,29.7 -31.28,48.21 -6.87,22.01 -7.99,45.51 -5.21,68.3 5.28,43.05 22.46,83.68 43.62,121.19 9.35,16.65 19.93,32.56 30.58,48.4 12.18,18.93 22.52,39.18 29.3,60.7 8.43,26.16 10.99,54.4 5.83,81.48 -6.3,33.48 -24.14,63.94 -47.36,88.52 -15.99,16.89 -34.26,31.78 -54.43,43.37 12.21,-11.3 21.15,-25.72 27.75,-40.9 10.7,-24.77 13.99,-52.32 11.54,-79.07 -3.66,-39.86 -18.93,-77.71 -38.49,-112.31 -9.64,-16.94 -20.47,-33.17 -31.94,-48.93 -13.07,-18.48 -24.41,-38.3 -32.54,-59.47 -8.51,-22.35 -13.26,-46.38 -11.79,-70.34 1.22,-24.26 8.95,-47.98 21.25,-68.85 z"
             id="path4551" />
          <path
             style="opacity:1;fill:#000000;stroke:#000000;stroke-width:0.09375"
             inkscape:connector-curvature="0"
             d="m 1297.66,619.02 c 0.02,-2.04 1.73,-5.28 4.19,-3.88 4.64,2.67 7.25,7.69 9.94,12.14 9.39,17.4 15.18,36.53 19.34,55.8 2.51,11.53 4.08,23.26 5.14,35.01 14.1,-0.07 28.33,-0.39 42.19,2.65 36.6,7.1 70.41,29.91 88.55,62.78 -26.86,23.79 -44.52,57.73 -48.39,93.42 -4.24,36 5.38,73.4 26.61,102.8 19.92,27.9 49.78,48.58 83.02,57.09 27.44,7.11 56.93,6.17 83.85,-2.76 31.15,23.7 52.65,59.44 59.64,97.9 2.2,11.54 3.19,23.29 2.88,35.04 0.54,36.48 -13.32,72.85 -37.81,99.88 -26.82,30 -65.06,48.87 -104.78,54.06 -9.61,1.58 -19.38,0.82 -29.06,1 -156.34,-0.02 -312.69,0.04 -469.04,-0.03 -39.47,-2.6 -78.18,-19.54 -105.88,-47.96 -27.84,-28.32 -43.7,-68.23 -42.05,-107.99 -1.83,-43.65 15.73,-87.53 46.57,-118.38 13.64,-13.57 29.66,-24.85 47.31,-32.58 -5.9,-10.65 -10.8,-21.95 -13.48,-33.86 -2.31,-9.21 -1.91,-18.76 -1.88,-28.17 0.1,-21.52 7.83,-42.67 20.6,-59.89 16.08,-21.92 39.34,-37.95 64.67,-47.39 1.53,-7 0.61,-14.19 1.82,-21.22 3.75,-34.13 23.97,-65.53 52.57,-84.26 20.3,-13.57 44.47,-21.08 68.83,-22.06 34.01,-0.14 68.03,-0.04 102.04,-0.05 12.15,-20.9 23.71,-43.45 24.47,-68.13 0.6,-10.39 -3.19,-20.59 -1.86,-30.96 z"
             id="path4553" />
          <path
             style="opacity:1;fill:#000000;stroke:#000000;stroke-width:0.09375"
             inkscape:connector-curvature="0"
             d="m 1073.6,1360.69 c 15.92,-10.72 35.59,-13.59 54.4,-13.7 16.16,0.36 32.78,2.28 47.37,9.71 13.82,6.93 24.73,19.39 29.81,33.99 2.53,7.17 3.72,14.75 4.05,22.33 -14.42,0.54 -28.85,1.15 -43.25,2 -1.57,-9.06 -4.92,-18.64 -12.59,-24.31 -8.17,-5.83 -18.64,-6.87 -28.39,-6.67 -10.52,0.04 -21.79,2.17 -29.98,9.21 -6.63,5.82 -6.65,17.16 -0.38,23.26 5.53,5.49 13.3,7.74 20.46,10.29 22.38,7.01 46.05,10.34 67.21,20.88 14.07,7 25.69,19.5 30.13,34.73 4.88,16.86 3.96,35.81 -4.66,51.34 -5.98,11.51 -15.81,20.89 -27.49,26.51 -14.39,6.98 -30.54,9.13 -46.36,9.64 -18.55,0.36 -37.79,-1.67 -54.5,-10.27 -13.35,-6.78 -23.97,-18.36 -30.19,-31.91 -4.59,-9.67 -6.95,-20.19 -8.4,-30.73 14.06,-1.2 28.11,-2.54 42.15,-3.99 1.94,10.43 5.72,21.08 13.51,28.62 7.28,7.12 17.47,10.46 27.47,11.18 9.36,0.48 18.98,0.17 27.88,-3.05 6.6,-2.33 12.43,-6.8 16.34,-12.61 4.17,-6.22 5.2,-14.64 2.22,-21.55 -2.98,-6.6 -9.8,-10.17 -16.23,-12.63 -25.88,-9.1 -54.31,-11.56 -78.14,-26 -15.99,-9.96 -27.01,-27.95 -27.32,-46.95 -0.94,-19.26 8.83,-38.64 24.88,-49.32 z"
             id="path4555" />
          <path
             style="opacity:1;fill:#000000;stroke:#000000;stroke-width:0.09375"
             inkscape:connector-curvature="0"
             d="m 968.64,1351 c 13.65,0 27.31,-0.01 40.96,0.01 -0.01,12.67 0,25.35 0,38.03 -13.66,-0.01 -27.31,0 -40.96,0 0,-12.68 0,-25.36 0,-38.04 z"
             id="path4557" />
          <path
             style="opacity:1;fill:#000000;stroke:#000000;stroke-width:0.09375"
             inkscape:connector-curvature="0"
             d="m 1251.46,1351.01 c 13.67,-0.02 27.34,-0.01 41.01,-0.01 0.02,26.24 -0.03,52.48 0.03,78.72 5.24,-5.9 11,-11.44 17.83,-15.47 15.56,-9.53 35.54,-10.57 52.46,-4.14 8.73,3.45 17.02,9.04 21.81,17.33 5.73,9.06 7.57,19.92 7.88,30.48 0.78,11.01 0.51,22.05 0.56,33.09 0,25 0,50.02 0,75.03 -13.73,0 -27.45,0 -41.16,0 -0.01,-27.01 0,-54.01 -0.01,-81.02 -0.13,-10.11 0.17,-20.31 -1.69,-30.29 -1.61,-8.18 -8.69,-14.54 -16.75,-16.1 -8.84,-1.59 -18.46,-0.37 -26.01,4.73 -6.78,4.36 -10.88,11.88 -12.64,19.58 -2.47,10.84 -2.37,22.03 -2.31,33.09 0,23.34 0.01,46.67 0,70.01 -13.67,0 -27.34,0 -41,0 -0.01,-71.68 0,-143.36 -0.01,-215.03 z"
             id="path4559" />
          <path
             style="opacity:1;fill:#000000;stroke:#000000;stroke-width:0.09375"
             inkscape:connector-curvature="0"
             d="m 1434.64,1351 c 13.65,0 27.31,-0.01 40.96,0.01 -0.01,12.67 0,25.35 0,38.03 -13.66,0 -27.31,0 -40.96,0 -0.01,-12.68 0,-25.36 0,-38.04 z"
             id="path4561" />
          <path
             style="opacity:1;fill:#000000;stroke:#000000;stroke-width:0.09375"
             inkscape:connector-curvature="0"
             d="m 1519.53,1380.01 c 13.69,-7.99 27.46,-15.86 41.1,-23.94 -0.07,17.98 -0.01,35.95 -0.03,53.93 9.42,0 18.84,-0.01 28.26,0 0,10.68 0,21.36 0,32.04 -9.42,-0.01 -18.84,-0.01 -28.26,0 0.09,25.31 -0.21,50.62 0.18,75.92 0.49,5.58 -0.89,13.01 4.92,16.34 7.31,3.98 15.73,0.02 23,-2.16 1.12,10.57 2.25,21.15 3.54,31.71 -8.03,3.25 -16.58,5.26 -25.23,5.77 -12.22,1.24 -25.44,-0.61 -35.48,-8.13 -6.45,-4.79 -9.28,-12.79 -10.58,-20.42 -1.71,-10.62 -1.22,-21.41 -1.42,-32.12 -0.01,-22.3 -0.01,-44.6 0,-66.9 -6.3,-0.03 -12.6,-0.01 -18.89,-0.01 -0.01,-10.68 0,-21.36 0,-32.04 6.29,-0.01 12.59,0.01 18.89,-0.01 -0.01,-10 -0.01,-19.99 0,-29.98 z"
             id="path4563" />
          <path
             style="opacity:1;fill:#000000;stroke:#000000;stroke-width:0.09375"
             inkscape:connector-curvature="0"
             d="m 968.64,1410 c 13.65,0 27.31,-0.01 40.96,0.01 -0.01,52.01 0,104.02 0,156.03 -13.66,-0.06 -27.31,-0.04 -40.96,-0.04 0,-52 0,-104 0,-156 z"
             id="path4565" />
          <path
             style="opacity:1;fill:#000000;stroke:#000000;stroke-width:0.09375"
             inkscape:connector-curvature="0"
             d="m 1434.64,1410 c 13.65,0 27.31,-0.01 40.96,0.01 -0.01,52.01 0,104.02 0,156.03 -13.66,-0.01 -27.31,0 -40.96,0 0,-52.01 0,-104.03 0,-156.04 z"
             id="path4567" />
        </g>
      </g>
    </g>
  </g>
</svg>
